<svg width="24" height="24" viewBox="0 0 24 24" fill="none" xmlns="http://www.w3.org/2000/svg">
<path d="M19 3C19.5304 3 20.039 3.21086 20.4141 3.58594C20.7891 3.96101 21 4.46957 21 5V19C21 19.5304 20.7891 20.039 20.4141 20.4141C20.039 20.7891 19.5304 21 19 21H5C4.46957 21 3.96101 20.7891 3.58594 20.4141C3.21086 20.039 3 19.5304 3 19V5C3 4.46957 3.21086 3.96101 3.58594 3.58594C3.96101 3.21086 4.46957 3 5 3H19ZM8.7002 5.48047C8.4602 5.48047 8.24624 5.5669 8.05957 5.74023C7.88646 5.91352 7.7998 6.13389 7.7998 6.40039V18.0801C7.79982 18.3333 7.88631 18.5536 8.05957 18.7402C8.24624 18.9136 8.4602 19 8.7002 19H15.5801C15.82 19 16.0269 18.9135 16.2002 18.7402C16.3868 18.5536 16.4804 18.3334 16.4805 18.0801V17.5596C16.4804 17.2932 16.3866 17.0736 16.2002 16.9004C16.0269 16.7271 15.82 16.6397 15.5801 16.6396H10.4199C10.26 16.6396 10.1797 16.5532 10.1797 16.3799V6.40039C10.1797 6.13388 10.0868 5.91352 9.90039 5.74023C9.72706 5.5669 9.5131 5.48047 9.25977 5.48047H8.7002Z" fill="#E2E2E2"/>
</svg>
