<svg width="24" height="24" viewBox="0 0 24 24" fill="none" xmlns="http://www.w3.org/2000/svg">
<path d="M19 3C19.5304 3 20.039 3.21086 20.4141 3.58594C20.7891 3.96101 21 4.46957 21 5V19C21 19.5304 20.7891 20.039 20.4141 20.4141C20.039 20.7891 19.5304 21 19 21H5C4.46957 21 3.96101 20.7891 3.58594 20.4141C3.21086 20.039 3 19.5304 3 19V5C3 4.46957 3.21086 3.96101 3.58594 3.58594C3.96101 3.21086 4.46957 3 5 3H19ZM8.74023 5.48047C8.4869 5.48047 8.27294 5.5669 8.09961 5.74023C7.93981 5.91352 7.86035 6.13389 7.86035 6.40039V18.0801C7.86037 18.3334 7.93966 18.5536 8.09961 18.7402C8.27294 18.9136 8.4869 19 8.74023 19H9.2998C9.55314 19 9.7671 18.9136 9.94043 18.7402C10.127 18.5536 10.2197 18.3333 10.2197 18.0801V13.96C10.2197 13.7867 10.3071 13.7002 10.4805 13.7002H12.3398C12.5132 13.7002 12.6335 13.7804 12.7002 13.9404L14.5801 18.4404C14.6467 18.6002 14.7601 18.7333 14.9199 18.8398C15.0933 18.9465 15.2671 19 15.4404 19H16.04C16.3466 19 16.5998 18.86 16.7998 18.5801C16.9731 18.3268 16.9935 18.0468 16.8604 17.7402L15.2197 13.7803C15.1797 13.7136 15.1735 13.6467 15.2002 13.5801C15.2269 13.5001 15.267 13.4538 15.3203 13.4404C15.7601 13.2138 16.1133 12.8936 16.3799 12.4805C16.6599 12.0538 16.7998 11.5796 16.7998 11.0596V8.13965C16.7997 7.64647 16.6804 7.1997 16.4404 6.7998C16.2005 6.3999 15.8803 6.07983 15.4805 5.83984C15.0805 5.59987 14.6401 5.48049 14.1602 5.48047H8.74023ZM14.1602 7.86035C14.3333 7.86041 14.4198 7.95327 14.4199 8.13965V11.0596C14.4199 11.2329 14.3334 11.3203 14.1602 11.3203H10.4805C10.3071 11.3203 10.2197 11.2329 10.2197 11.0596V8.12012C10.2197 7.94678 10.3071 7.86035 10.4805 7.86035H14.1602Z" fill="#E2E2E2"/>
</svg>
