<svg width="24" height="24" viewBox="0 0 24 24" fill="none" xmlns="http://www.w3.org/2000/svg">
<g clip-path="url(#clip0_7_38)">
<path d="M17.7528 1.54239C19.4975 1.54239 21.3657 5.74437 21.3657 11.9999C21.3657 18.2554 19.4975 22.4574 17.7528 22.4574C16.9682 22.4574 16.1623 21.6005 15.5108 20.0919H16.9675C18.8306 20.0919 19.8363 15.9226 19.8363 11.9999C19.8363 8.07716 18.831 3.90779 16.9675 3.90779H15.5105C16.162 2.39952 16.9688 1.54239 17.7528 1.54239ZM6.24709 22.4574C4.50235 22.4574 2.63416 18.2551 2.63416 11.9999C2.63416 5.74465 4.50235 1.54239 6.24709 1.54239C7.99182 1.54239 9.86002 5.74437 9.86002 11.9999C9.86002 18.2554 7.99216 22.4574 6.24709 22.4574Z" fill="#E2E2E2"/>
<path d="M10.4943 11.9999C10.4943 9.28655 10.0942 6.52678 9.3595 4.45016H16.9669C17.3613 4.45016 17.9624 4.99975 18.4657 6.54264C18.94 7.99696 19.2015 9.9351 19.2015 11.9999C19.2015 14.0646 18.94 16.003 18.4657 17.4571C17.9624 19 17.3616 19.5495 16.9669 19.5495H15.1564H9.35983C10.0942 17.473 10.4943 14.7132 10.4943 11.9999Z" fill="#E2E2E2"/>
</g>
<defs>
<clipPath id="clip0_7_38">
<rect width="20" height="22" fill="white" transform="translate(2 1)"/>
</clipPath>
</defs>
</svg>
